# xmcd
#
# Track frame offsets: 
#        182
#        20120
#        41012
#        57045
#        76092
#        90870
#        106982
#        135620
#        151255
#        165885
#        184275
#
# Disc length: 3058 seconds
#
# Revision: 1
# Processed by: cddbd v1.5.2PL0 Copyright (c) Steve Scherf et al.
# Submitted via: ExactAudioCopy v0.99pb5
#
DISCID=780bf00b
DTITLE=Philip Tabane and Malombo - UNH!
DYEAR=1989
DGENRE=Ethnic
TTITLE0=Mpedi
TTITLE1=Sompiro
TTITLE2=Unh!
TTITLE3=Inhliziyo
TTITLE4=Kgale
TTITLE5=Lenyora
TTITLE6=Dibenjo
TTITLE7=Khutsana
TTITLE8=Draaikies
TTITLE9=Modumokgole
TTITLE10=Lefatshe
EXTD=YEAR: 1989
EXTT0=
EXTT1=
EXTT2=
EXTT3=
EXTT4=
EXTT5=
EXTT6=
EXTT7=
EXTT8=
EXTT9=
EXTT10=
PLAYORDER=
